<svg xmlns="http://www.w3.org/2000/svg" xmlns:xlink="http://www.w3.org/1999/xlink" id="Layer_1" style="enable-background:new 0 0 267.513 268.324;" viewBox="0 0 267.513 268.324" xml:space="preserve"><g><circle cx="50.007" cy="53.833" r="22.5"/><path d="M266.921,170.226c2.472-42.248-2.813-69.811-15.706-81.925c-5.619-5.28-11.108-6.182-13.92-6.246   c-0.157-0.01-0.313-0.024-0.472-0.024h-38.635c-0.162,0-0.319,0.014-0.479,0.024c-2.813,0.065-8.299,0.969-13.915,6.245   c-3.188,2.996-5.91,6.94-8.165,11.814c-2.255-4.874-4.977-8.818-8.165-11.813c-5.618-5.28-11.107-6.182-13.92-6.246   c-0.157-0.01-0.313-0.024-0.472-0.024h-38.635c-0.162,0-0.319,0.014-0.479,0.024c-2.813,0.065-8.299,0.969-13.915,6.245   c-3.188,2.996-5.91,6.94-8.165,11.814c-2.255-4.874-4.977-8.818-8.165-11.813c-5.618-5.279-11.107-6.182-13.919-6.246   c-0.157-0.01-0.313-0.024-0.473-0.024H30.689c-0.161,0-0.319,0.014-0.478,0.024c-2.813,0.065-8.299,0.969-13.915,6.245   C3.404,100.414-1.88,127.978,0.591,170.226c0.249,4.252,3.774,7.533,7.979,7.533c0.157,0,0.316-0.004,0.475-0.014   c4.411-0.258,7.777-4.043,7.519-8.454c-2.056-35.139,1.926-53.87,6.397-63.168v44.241l-8.53,104.59   c-0.555,6.807,4.514,12.772,11.318,13.327c6.805,0.554,12.773-4.51,13.328-11.317l7.429-91.084h7.002l7.429,91.084   c0.555,6.808,6.523,11.872,13.328,11.317c6.805-0.555,11.873-6.52,11.318-13.327l-8.53-104.592v-44.237   c3.212,6.68,6.17,18.23,6.82,37.235c-0.158,5.105-0.157,10.515,0.006,16.234c-0.091,3.085-0.231,6.312-0.429,9.695   c-0.258,4.411,3.108,8.196,7.519,8.454c0.159,0.009,0.317,0.014,0.475,0.014c0.148,0,0.292-0.013,0.438-0.021   c0.146,0.008,0.292,0.021,0.44,0.021c0.157,0,0.316-0.004,0.475-0.014c4.411-0.258,7.777-4.043,7.519-8.454   c-0.198-3.383-0.338-6.609-0.429-9.694c0.163-5.72,0.164-11.131,0.006-16.236c0.649-19.007,3.608-30.558,6.82-37.237v44.241   l-8.53,104.59c-0.555,6.807,4.514,12.772,11.318,13.327c6.805,0.554,12.773-4.51,13.328-11.317l7.429-91.084h7.002l7.429,91.084   c0.555,6.808,6.523,11.872,13.328,11.317c6.805-0.555,11.873-6.52,11.318-13.327l-8.53-104.592v-44.237   c3.212,6.68,6.17,18.23,6.82,37.235c-0.158,5.105-0.157,10.515,0.006,16.234c-0.091,3.085-0.231,6.312-0.429,9.695   c-0.258,4.411,3.108,8.196,7.519,8.454c0.159,0.009,0.317,0.014,0.475,0.014c0.148,0,0.292-0.013,0.438-0.021   c0.146,0.008,0.292,0.021,0.44,0.021c0.157,0,0.316-0.004,0.475-0.014c4.411-0.258,7.777-4.043,7.519-8.454   c-0.198-3.383-0.338-6.609-0.429-9.694c0.163-5.72,0.164-11.131,0.006-16.236c0.649-19.007,3.608-30.558,6.82-37.237v44.241   l-8.53,104.59c-0.555,6.807,4.514,12.772,11.318,13.327c6.805,0.554,12.773-4.51,13.328-11.317l7.429-91.084h7.002l7.429,91.084   c0.555,6.808,6.523,11.872,13.328,11.317c6.805-0.555,11.873-6.52,11.318-13.327l-8.53-104.592v-44.237   c4.47,9.298,8.452,28.029,6.396,63.165c-0.258,4.411,3.108,8.196,7.519,8.454c0.159,0.009,0.317,0.014,0.475,0.014   C263.147,177.759,266.673,174.478,266.921,170.226z"/><circle cx="217.507" cy="53.833" r="22.5"/><circle cx="133.757" cy="53.833" r="22.5"/><circle cx="91.882" cy="22.5" r="22.5"/><circle cx="175.632" cy="22.5" r="22.5"/></g></svg>