<?xml version="1.0" encoding="UTF-8"?>
<svg id="Layer_2" data-name="Layer 2" xmlns="http://www.w3.org/2000/svg" viewBox="0 0 240 240">
  <defs>
    <style>
      .cls-outline {
        fill: none;
        stroke: currentColor;
        stroke-width: 0.5;
        stroke-linecap: round;
        stroke-linejoin: round;
      }
    </style>
  </defs>
  <g id="Layer_1-2" data-name="Layer 1">
    <g>
      <path class="cls-outline" d="M0,239.5V0h240v240H0v-.5ZM217.67,141.01l-7.95-.23c-1.26-.04-1.92-4.59-.84-5.35,11.88-6.19,23.49-20.79,18.38-36.25-48.69,56.74-123.53,70.69-187.8,32.84-8.81-40.57,16.11-83.35,57.81-96.2s85.67,8.01,102.65,48.26l9.79,8.4,15.84-6.74C214.85,30.45,158.01-3.62,105.21,11.06,50.5,26.27,20.56,83.3,38.83,136.5c16.03,46.68,66.62,77.69,116.32,61.72-11.22-29.61,16.83,10,41.32-21.61-2.99-2.78-6.78-3.34-10.69-4.12,3.08-9.84,33.88-.02,31.89-31.48ZM231.83,123.59c-9.3,46.67-46.34,80.31-91.46,85.04-47.05,4.93-91.1-23.32-106.65-66.18-17.06-47.03-.37-93.14,38.95-122.84C20.42,42.12-3.15,102.98,13.45,154.04c16.91,52.01,68.46,85.01,123.11,77.1,51.81-7.49,95.27-52.93,95.26-107.56ZM105.69,95.23c-29.86,8.61-33.36,34.8-63.21,34.92,61.34,38.32,141.89,22.78,184.82-34.73-2.55-2.3-5.16-2.55-7.7-1.05-3.52,2.49-7.98,4.13-12.44,3.13-2.92-.65-6.21-5.41-9.77-6.84-11.52-1.22-14.77,16.72-26.19,18.86-2.71.51-7.03-1.85-6.77-4.26l.98-9.19c.43-4.05-4.81-5.35-7.45-4.73-2.78.66-6.65,1.64-8.66,4.07l-16.15,19.56c-2.59,3.14-8.13,4.46-10.99,3.29-8.78-3.6-.36-16.44-6.21-21.81-2.1-1.93-6.56-2.31-10.26-1.24Z"/>
      <path class="cls-outline" d="M217.67,141.01c2,31.46-28.81,21.65-31.89,31.48,3.91.78,7.7,1.34,10.69,4.12-24.48,31.61-52.54-8-41.32,21.61-49.69,15.97-100.29-15.04-116.32-61.72C20.56,83.3,50.5,26.27,105.21,11.06c52.8-14.68,109.64,19.39,120.33,74.67l-15.84,6.74-9.79-8.4c-16.98-40.25-61.64-60.9-102.65-48.26s-66.62,55.63-57.81,96.2c64.27,37.86,139.11,23.9,187.8-32.84,5.11,15.46-6.5,30.06-18.38,36.25-1.08.76-.42,5.31.84,5.35l7.95.23Z"/>
      <path class="cls-outline" d="M231.83,123.59c.01,54.63-43.45,100.06-95.26,107.56-54.66,7.9-106.2-25.1-123.11-77.1C-3.15,102.98,20.42,42.12,72.67,19.61c-39.33,29.7-56.01,75.82-38.95,122.84,15.55,42.86,59.6,71.11,106.65,66.18,45.13-4.73,82.16-38.37,91.46-85.04Z"/>
      <path class="cls-outline" d="M105.69,95.23c3.7-1.07,8.16-.69,10.26,1.24,5.85,5.37-2.58,18.21,6.21,21.81,2.85,1.17,8.39-.15,10.99-3.29l16.15-19.56c2.01-2.43,5.88-3.42,8.66-4.07s7.89.68,7.45,4.73l-.98,9.19c-.26,2.42,4.06,4.77,6.77,4.26,11.42-2.15,14.67-20.09,26.19-18.86,3.56,1.43,6.86,6.19,9.77,6.84,4.46,1,8.92-.64,12.44-3.13,2.54-1.5,5.14-1.25,7.7,1.05-42.93,57.51-123.48,73.05-184.82,34.73,29.84-.12,33.34-26.31,63.21-34.92Z"/>
    </g>
  </g>
</svg>
